# xmcd
# Track frame offsets:
# 150
# 15154
# 28815
# 45519
# 63242
# 75022
# 90687
# 104616
# 117388
# 134692
# 150226
# 163464
# 176717
#
# Disc length: 2609 seconds
# Revision: 0
# Processed by: cddbd v1.4PL0 Copyright (c) Steve Scherf et al.
# Submitted via: VisiTrax 2.9.7.197 - For more info visit www.synapsa.com
#
DISCID=9d0a2f0d
DTITLE=T. Jae Christian - Marrige On The Rocks (and Other Bad Hearthes)
DYEAR=1900
DGENRE=
TTITLE0=T. Jae Christian - Marriage On The Rocks
TTITLE1=T. Jae Christian - When I Had You
TTITLE2=T. Jae Christian - I Could Build A Lifetime
TTITLE3=T. Jae Christian - BRING back The Arms (It Came In)
TTITLE4=T. Jae Christian - Country Conscience
TTITLE5=T. Jae Christian - House Of Diamonds
TTITLE6=T. Jae Christian - Slow Death
TTITLE7=T. Jae Christian - These Boots Were Mede For Walkin'
TTITLE8=T. Jae Christian - Still Gettin Over You
TTITLE9=T. Jae Christian - I'ts You
TTITLE10=Chance Martin - We' Re All Here
TTITLE11=T.Jae Christian, Chance Martin - Just Like Mine
TTITLE12=T. Jae Christian, Chance Martin - Mr.Tree Jammin' Jack
EXTD=Universal Records 1999 - 10013\nThe Duo BRings You The Super Duets "Ju
EXTD=st Like Mine" Intruducin Chance Martin
EXTT0=
EXTT1=
EXTT2=
EXTT3=
EXTT4=
EXTT5=
EXTT6=
EXTT7=
EXTT8=
EXTT9=
EXTT10=
EXTT11=
EXTT12=
PLAYORDER=
